<?xml version="1.0" encoding="UTF-8"?>
<svg id="Capa_2" xmlns="http://www.w3.org/2000/svg" xmlns:xlink="http://www.w3.org/1999/xlink" viewBox="0 0 970.68 842.95">
  <defs>
    <style>
      .cls-1 {
        fill: url(#Degradado_sin_nombre_22);
      }
    </style>
    <linearGradient id="Degradado_sin_nombre_22" data-name="Degradado sin nombre 22" x1="1538.93" y1="568.23" x2="1538.93" y2="-333.2" gradientTransform="translate(-1074 513.46) rotate(-9.09) scale(1 .95)" gradientUnits="userSpaceOnUse">
      <stop offset="0" stop-color="#3a689d"/>
      <stop offset=".35" stop-color="#355294"/>
      <stop offset=".69" stop-color="#32448e"/>
      <stop offset="1" stop-color="#31408d"/>
    </linearGradient>
  </defs>
  <g id="Diseño">
    <path class="cls-1" d="M51.38,19.75C33.39,29.35-4.57,59.89.45,120.63c4.03,48.72,29.98,112.7,37.7,155.5,23.39,129.72-44.22,281.79-22.09,395.58,24.36,125.23,125.82,170.87,251.14,171.24,135.44.4,177.32-60.64,252.71-100.24,73.96-38.85,114.84,2.86,246.93-20.46,96.01-16.95,220.66-120.31,201.96-267.98-18.7-147.67-140.59-249.18-261.13-257.6-120.54-8.42-296.47-24.31-395.29-103.37C202.45,5.36,132.18-23.34,51.38,19.75Z"/>
  </g>
</svg>