<?xml version="1.0" encoding="UTF-8"?>
<svg id="Capa_2" xmlns="http://www.w3.org/2000/svg" viewBox="0 0 16.58 12.43">
  <defs>
    <style>
      .cls-1 {
        fill: #f9a12f;
      }
    </style>
  </defs>
  <g id="Sistema">
    <path class="cls-1" d="M14.68,0H1.9C.85,0,0,.85,0,1.9v8.63c0,1.05.85,1.9,1.9,1.9h12.78c1.05,0,1.9-.85,1.9-1.9V1.9c0-1.05-.85-1.9-1.9-1.9ZM5.18,2.76c.95,0,1.73.77,1.73,1.73s-.77,1.73-1.73,1.73-1.73-.77-1.73-1.73.77-1.73,1.73-1.73ZM8.29,9.15c0,.29-.23.52-.52.52H2.59c-.29,0-.52-.23-.52-.52v-.35c0-1.05.85-1.9,1.9-1.9h2.42c1.05,0,1.9.85,1.9,1.9v.35ZM13.99,9.67h-3.8c-.29,0-.52-.23-.52-.52s.23-.52.52-.52h3.8c.29,0,.52.23.52.52s-.23.52-.52.52ZM13.99,6.91h-3.8c-.29,0-.52-.23-.52-.52s.23-.52.52-.52h3.8c.29,0,.52.23.52.52s-.23.52-.52.52ZM13.99,4.14h-3.8c-.29,0-.52-.23-.52-.52s.23-.52.52-.52h3.8c.29,0,.52.23.52.52s-.23.52-.52.52Z"/>
  </g>
</svg>