<?xml version="1.0" encoding="UTF-8"?>
<svg id="Capa_2" xmlns="http://www.w3.org/2000/svg" viewBox="0 0 29.02 21.45">
  <defs>
    <style>
      .cls-1 {
        fill: #f9a12f;
      }
    </style>
  </defs>
  <g id="Sistema">
    <g>
      <path class="cls-1" d="M28.75,1.88l-12.23,11.96c-.55.55-1.28.83-2.01.83s-1.45-.28-2.01-.83L.38,1.69c-.23.44-.38.94-.38,1.47v15.14c0,.53.15,1.03.38,1.47l6.56-6.55c.37-.37.97-.37,1.34,0,.37.37.37.97,0,1.34l-6.55,6.54c.43.22.91.36,1.43.36h22.71c.52,0,1-.14,1.43-.36l-6.55-6.54c-.37-.37-.37-.97,0-1.34.37-.37.97-.37,1.34,0l6.56,6.55c.23-.44.38-.93.38-1.47V3.15c0-.45-.1-.88-.27-1.28Z"/>
      <path class="cls-1" d="M25.87,0H3.15c-.52,0-1,.14-1.43.36l12.11,12.15c.37.37.97.37,1.34,0L27.49.46c-.48-.29-1.03-.46-1.62-.46Z"/>
    </g>
  </g>
</svg>